# xmcd
#
# Track frame offsets:
#	150
#	22305
#	42832
#	67209
#	92189
#	128456
#	146800
#	161550
#	181742
#	204672
#	225345
#
# Disc length: 3277 seconds
# Revision: 0
# Processed by: cddbd v1.5.2PL0 Copyright (c) Steve Scherf et al.
# Submitted via: dBpowerAMP V12.0
#
DISCID=980ccb0b
DTITLE=Pete Cornelius - Groundswell
DYEAR=2013
DGENRE=Blues
TTITLE0=Drinking The Blues
TTITLE1=Love And Happiness
TTITLE2=Right Place At The Wrong Time 
TTITLE3=Cold Water
TTITLE4=Repo Man
TTITLE5=Goodnight My Love 
TTITLE6=Been my Gal
TTITLE7=Talkin' Bout New Orleans
TTITLE8=My Soul
TTITLE9=Woman Across the River
TTITLE10=Strong Suit
EXTD=
EXTT0=
EXTT1=
EXTT2=
EXTT3=
EXTT4=
EXTT5=
EXTT6=
EXTT7=
EXTT8=
EXTT9=
EXTT10=
PLAYORDER=
